<svg preserveAspectRatio="none" overflow="visible" style="display: block;" width="20" height="14.3997" viewBox="0 0 20 14.3997" fill="none" xmlns="http://www.w3.org/2000/svg">
<g id="Group">
<path id="Subtract" d="M12.7188 0C14.471 0.0867516 16.1535 0.715201 17.5332 1.79883C19.1019 4.90029 19.9452 8.31778 20 11.793C19.4038 12.6201 18.6147 13.2893 17.7012 13.7422C16.7875 14.195 15.7762 14.4181 14.7568 14.3916C14.7422 14.3741 14.1347 13.647 13.627 13.0039C14.8686 12.7114 15.9669 11.9889 16.7275 10.9648C16.1111 11.3751 15.4497 11.7141 14.7568 11.9756C13.96 12.3157 13.1269 12.5636 12.2734 12.7129C10.8062 12.983 9.30106 12.9767 7.83594 12.6953C6.97766 12.5267 6.13574 12.2805 5.32227 11.959C4.63537 11.6966 3.98 11.3575 3.36914 10.9482C4.10234 11.951 5.16362 12.6659 6.36816 12.9697C5.85552 13.6191 5.22887 14.3934 5.22559 14.3975C4.20788 14.4248 3.19928 14.2012 2.28809 13.7471C1.37687 13.293 0.590931 12.622 0 11.793C0.0548101 8.31778 0.898076 4.90029 2.4668 1.79883C3.84653 0.715201 5.529 0.0867515 7.28125 0L7.45312 0.206055C5.80051 0.612689 4.25786 1.37877 2.93555 2.4502C2.93555 2.4502 3.31237 2.24439 3.94629 1.95312C5.17751 1.389 6.49051 1.02293 7.83594 0.868164C7.92985 0.848685 8.02524 0.837256 8.12109 0.833984C9.26921 0.68439 10.4312 0.672972 11.582 0.799805C13.3942 1.00756 15.1485 1.56819 16.7451 2.4502C15.4931 1.43107 14.0386 0.689531 12.4785 0.274414L12.7188 0ZM13.0439 6.39062C12.6609 6.35816 12.2769 6.4425 11.9424 6.63184C11.6079 6.8212 11.3382 7.1071 11.1689 7.45215C10.9997 7.79713 10.9383 8.18513 10.9932 8.56543C11.0482 8.94592 11.2174 9.30091 11.4775 9.58398C11.7376 9.86702 12.0767 10.0654 12.4512 10.1523C12.8257 10.2392 13.218 10.2109 13.5762 10.0713C13.9342 9.93169 14.2421 9.68739 14.459 9.37012C14.6759 9.05271 14.7921 8.67643 14.792 8.29199C14.8023 8.05245 14.7648 7.81311 14.6826 7.58789C14.6004 7.36274 14.4746 7.15602 14.3125 6.97949C14.1502 6.80285 13.9539 6.65957 13.7363 6.55859C13.5188 6.45771 13.2835 6.40053 13.0439 6.39062ZM6.79004 6.39062C6.31441 6.43199 5.87158 6.65014 5.54883 7.00195C5.22604 7.35395 5.04697 7.81441 5.04688 8.29199C5.04687 8.76971 5.22595 9.23092 5.54883 9.58301C5.87157 9.93476 6.31445 10.153 6.79004 10.1943C7.02973 10.1844 7.26579 10.1273 7.4834 10.0264C7.70096 9.92539 7.8963 9.78208 8.05859 9.60547C8.22078 9.42895 8.34645 9.22223 8.42871 8.99707C8.51098 8.77172 8.54843 8.53166 8.53809 8.29199C8.54971 8.05222 8.5133 7.81265 8.43164 7.58691C8.34988 7.36101 8.22407 7.15347 8.06152 6.97656C7.89895 6.79965 7.7026 6.6562 7.48438 6.55566C7.26629 6.45527 7.02997 6.39922 6.79004 6.39062Z" fill="#111111"/>
</g>
</svg>
